<mxfile host="www.draw.io" modified="2019-11-28T10:37:04.557Z" agent="Mozilla/5.0 (Windows NT 10.0; WOW64; rv:68.0) Gecko/20100101 Firefox/68.0" etag="e-UmTNFQFyC2Lyi7RXX-" version="12.3.2" type="github" pages="1">
  <diagram id="C9CMbZErU_ySkchIJB0l" name="Page-1">
    <mxGraphModel dx="11080" dy="5753" grid="1" gridSize="10" guides="1" tooltips="1" connect="1" arrows="1" fold="1" page="0" pageScale="1" pageWidth="850" pageHeight="1100" math="0" shadow="0">
      <root>
        <mxCell id="0"/>
        <mxCell id="1" parent="0"/>
        <mxCell id="JUKCFMBZ1_z9AispUu9s-46" value="" style="rounded=0;whiteSpace=wrap;html=1;" parent="1" vertex="1">
          <mxGeometry x="-1280" y="449" width="4430" height="3632" as="geometry"/>
        </mxCell>
        <mxCell id="JUKCFMBZ1_z9AispUu9s-1" value="" style="shape=mxgraph.signs.tech.camera_1;html=1;fillColor=#ffe6cc;strokeColor=#CC0000;verticalLabelPosition=bottom;verticalAlign=top;align=center;rotation=30;strokeWidth=12;fontStyle=1;fontSize=80;" parent="1" vertex="1">
          <mxGeometry x="-670" y="2329" width="275" height="264" as="geometry"/>
        </mxCell>
        <mxCell id="JUKCFMBZ1_z9AispUu9s-2" value="" style="endArrow=classic;html=1;dashed=1;strokeWidth=12;exitX=1;exitY=0.5;exitPerimeter=0;strokeColor=#d80073;startArrow=block;startFill=1;endFill=1;fillColor=#d80073;fontStyle=1;fontSize=80;" parent="1" source="JUKCFMBZ1_z9AispUu9s-1" edge="1">
          <mxGeometry width="50" height="50" relative="1" as="geometry">
            <mxPoint x="-497" y="3005" as="sourcePoint"/>
            <mxPoint x="1480" y="3050" as="targetPoint"/>
          </mxGeometry>
        </mxCell>
        <mxCell id="JUKCFMBZ1_z9AispUu9s-3" value="" style="endArrow=classic;html=1;dashed=1;strokeWidth=12;exitX=0.994;exitY=0.619;exitPerimeter=0;strokeColor=#d80073;startArrow=block;startFill=1;endFill=1;fillColor=#d80073;fontStyle=1;fontSize=80;" parent="1" source="JUKCFMBZ1_z9AispUu9s-1" edge="1">
          <mxGeometry width="50" height="50" relative="1" as="geometry">
            <mxPoint x="-571" y="3025" as="sourcePoint"/>
            <mxPoint x="226.5" y="3100" as="targetPoint"/>
          </mxGeometry>
        </mxCell>
        <mxCell id="JUKCFMBZ1_z9AispUu9s-4" value="" style="endArrow=classic;html=1;dashed=1;strokeWidth=12;strokeColor=#d80073;startArrow=block;startFill=1;endFill=1;exitX=1;exitY=0.5;exitPerimeter=0;fillColor=#d80073;fontStyle=1;fontSize=80;" parent="1" source="JUKCFMBZ1_z9AispUu9s-1" edge="1">
          <mxGeometry width="50" height="50" relative="1" as="geometry">
            <mxPoint x="-618" y="2856" as="sourcePoint"/>
            <mxPoint x="996.5" y="3130" as="targetPoint"/>
          </mxGeometry>
        </mxCell>
        <mxCell id="JUKCFMBZ1_z9AispUu9s-5" value="" style="endArrow=classic;html=1;dashed=1;strokeWidth=12;entryX=0.245;entryY=0.806;entryPerimeter=0;strokeColor=#d80073;startArrow=block;startFill=1;endFill=1;fillColor=#d80073;exitX=1.002;exitY=0.601;exitPerimeter=0;fontStyle=1;fontSize=80;" parent="1" source="JUKCFMBZ1_z9AispUu9s-1" edge="1">
          <mxGeometry width="50" height="50" relative="1" as="geometry">
            <mxPoint x="-516" y="3036" as="sourcePoint"/>
            <mxPoint x="-46" y="3229.666666666668" as="targetPoint"/>
          </mxGeometry>
        </mxCell>
        <mxCell id="JUKCFMBZ1_z9AispUu9s-6" value="Camera" style="text;html=1;strokeColor=none;fillColor=none;align=center;verticalAlign=middle;whiteSpace=wrap;rounded=0;fontSize=80;fontStyle=1" parent="1" vertex="1">
          <mxGeometry x="-752.5" y="2663.5" width="220" height="33" as="geometry"/>
        </mxCell>
        <mxCell id="JUKCFMBZ1_z9AispUu9s-7" value="" style="shape=mxgraph.signs.tech.camera_1;html=1;fillColor=#ffe6cc;strokeColor=#CC0000;verticalLabelPosition=bottom;verticalAlign=top;align=center;rotation=145;strokeWidth=12;fontStyle=1;fontSize=80;" parent="1" vertex="1">
          <mxGeometry x="2471.5" y="1113.5" width="275" height="264" as="geometry"/>
        </mxCell>
        <mxCell id="JUKCFMBZ1_z9AispUu9s-8" value="" style="endArrow=classic;html=1;dashed=1;strokeWidth=12;exitX=1;exitY=0.5;exitPerimeter=0;strokeColor=#d80073;startArrow=block;startFill=1;endFill=1;fillColor=#d80073;fontStyle=1;fontSize=80;" parent="1" source="JUKCFMBZ1_z9AispUu9s-7" edge="1">
          <mxGeometry width="50" height="50" relative="1" as="geometry">
            <mxPoint x="2644.5" y="1789.5" as="sourcePoint"/>
            <mxPoint x="1830" y="1517" as="targetPoint"/>
          </mxGeometry>
        </mxCell>
        <mxCell id="JUKCFMBZ1_z9AispUu9s-9" value="" style="endArrow=classic;html=1;dashed=1;strokeWidth=12;exitX=0.994;exitY=0.619;exitPerimeter=0;strokeColor=#d80073;startArrow=block;startFill=1;endFill=1;fillColor=#d80073;fontStyle=1;fontSize=80;" parent="1" source="JUKCFMBZ1_z9AispUu9s-7" edge="1">
          <mxGeometry width="50" height="50" relative="1" as="geometry">
            <mxPoint x="2570.5" y="1809.5" as="sourcePoint"/>
            <mxPoint x="2130" y="1848" as="targetPoint"/>
          </mxGeometry>
        </mxCell>
        <mxCell id="JUKCFMBZ1_z9AispUu9s-10" value="" style="endArrow=classic;html=1;dashed=1;strokeWidth=12;strokeColor=#d80073;startArrow=block;startFill=1;endFill=1;exitX=1;exitY=0.5;exitPerimeter=0;fillColor=#d80073;fontStyle=1;fontSize=80;" parent="1" source="JUKCFMBZ1_z9AispUu9s-7" edge="1">
          <mxGeometry width="50" height="50" relative="1" as="geometry">
            <mxPoint x="2523.5" y="1640.5" as="sourcePoint"/>
            <mxPoint x="2090" y="1567" as="targetPoint"/>
          </mxGeometry>
        </mxCell>
        <mxCell id="JUKCFMBZ1_z9AispUu9s-11" value="" style="endArrow=classic;html=1;dashed=1;strokeWidth=12;strokeColor=#d80073;startArrow=block;startFill=1;endFill=1;fillColor=#d80073;exitX=1.002;exitY=0.601;exitPerimeter=0;fontStyle=1;fontSize=80;" parent="1" source="JUKCFMBZ1_z9AispUu9s-7" edge="1">
          <mxGeometry width="50" height="50" relative="1" as="geometry">
            <mxPoint x="2625.5" y="1820.5" as="sourcePoint"/>
            <mxPoint x="2185" y="2068" as="targetPoint"/>
          </mxGeometry>
        </mxCell>
        <mxCell id="JUKCFMBZ1_z9AispUu9s-12" value="Camera" style="text;html=1;strokeColor=none;fillColor=none;align=center;verticalAlign=middle;whiteSpace=wrap;rounded=0;fontSize=80;fontStyle=1" parent="1" vertex="1">
          <mxGeometry x="2609" y="983" width="220" height="957" as="geometry"/>
        </mxCell>
        <mxCell id="JUKCFMBZ1_z9AispUu9s-21" value="" style="shape=image;html=1;verticalAlign=top;verticalLabelPosition=bottom;labelBackgroundColor=#ffffff;imageAspect=0;aspect=fixed;image=https://cdn0.iconfinder.com/data/icons/avatar-vol-2-4/512/9-128.png" parent="1" vertex="1">
          <mxGeometry x="1270" y="3192" width="648" height="648" as="geometry"/>
        </mxCell>
        <mxCell id="JUKCFMBZ1_z9AispUu9s-22" value="" style="shape=image;html=1;verticalAlign=top;verticalLabelPosition=bottom;labelBackgroundColor=#ffffff;imageAspect=0;aspect=fixed;image=https://cdn0.iconfinder.com/data/icons/avatar-vol-2-4/512/4-128.png" parent="1" vertex="1">
          <mxGeometry x="-210" y="3286" width="554" height="554" as="geometry"/>
        </mxCell>
        <mxCell id="JUKCFMBZ1_z9AispUu9s-26" value="" style="shape=image;html=1;verticalAlign=top;verticalLabelPosition=bottom;labelBackgroundColor=#ffffff;imageAspect=0;aspect=fixed;image=https://cdn2.iconfinder.com/data/icons/iconslandhardware/PNG/128x128/Gamepad3.png" parent="1" vertex="1">
          <mxGeometry x="1390" y="1585" width="680" height="680" as="geometry"/>
        </mxCell>
        <mxCell id="JUKCFMBZ1_z9AispUu9s-24" value="" style="shape=image;html=1;verticalAlign=top;verticalLabelPosition=bottom;labelBackgroundColor=#ffffff;imageAspect=0;aspect=fixed;image=https://cdn0.iconfinder.com/data/icons/avatar-vol-2-4/512/2-128.png" parent="1" vertex="1">
          <mxGeometry x="1300" y="1940" width="650" height="650" as="geometry"/>
        </mxCell>
        <mxCell id="JUKCFMBZ1_z9AispUu9s-28" value="" style="aspect=fixed;perimeter=ellipsePerimeter;html=1;align=center;shadow=0;dashed=0;fontColor=#4277BB;labelBackgroundColor=#ffffff;fontSize=12;spacingTop=3;image;image=img/lib/ibm/users/sensor.svg;" parent="1" vertex="1">
          <mxGeometry x="1440" y="1757" width="60" height="60" as="geometry"/>
        </mxCell>
        <mxCell id="JUKCFMBZ1_z9AispUu9s-29" value="" style="aspect=fixed;perimeter=ellipsePerimeter;html=1;align=center;shadow=0;dashed=0;fontColor=#4277BB;labelBackgroundColor=#ffffff;fontSize=12;spacingTop=3;image;image=img/lib/ibm/users/sensor.svg;" parent="1" vertex="1">
          <mxGeometry x="1890" y="1837" width="60" height="60" as="geometry"/>
        </mxCell>
        <mxCell id="JUKCFMBZ1_z9AispUu9s-31" value="" style="aspect=fixed;perimeter=ellipsePerimeter;html=1;align=center;shadow=0;dashed=0;fontColor=#4277BB;labelBackgroundColor=#ffffff;fontSize=12;spacingTop=3;image;image=img/lib/ibm/users/sensor.svg;" parent="1" vertex="1">
          <mxGeometry x="1748" y="2458" width="60" height="60" as="geometry"/>
        </mxCell>
        <mxCell id="JUKCFMBZ1_z9AispUu9s-32" value="" style="aspect=fixed;perimeter=ellipsePerimeter;html=1;align=center;shadow=0;dashed=0;fontColor=#4277BB;labelBackgroundColor=#ffffff;fontSize=12;spacingTop=3;image;image=img/lib/ibm/users/sensor.svg;" parent="1" vertex="1">
          <mxGeometry x="1660" y="2507" width="60" height="60" as="geometry"/>
        </mxCell>
        <mxCell id="JUKCFMBZ1_z9AispUu9s-33" value="" style="shape=image;html=1;verticalAlign=top;verticalLabelPosition=bottom;labelBackgroundColor=#ffffff;imageAspect=0;aspect=fixed;image=https://cdn3.iconfinder.com/data/icons/tango-icon-library/48/utilities-system-monitor-128.png" parent="1" vertex="1">
          <mxGeometry x="610" y="1696" width="402" height="402" as="geometry"/>
        </mxCell>
        <mxCell id="JUKCFMBZ1_z9AispUu9s-39" value="Driver" style="text;html=1;strokeColor=none;fillColor=none;align=center;verticalAlign=middle;whiteSpace=wrap;rounded=0;fontSize=80;fontStyle=1" parent="1" vertex="1">
          <mxGeometry x="1515" y="2647" width="220" height="33" as="geometry"/>
        </mxCell>
        <mxCell id="JUKCFMBZ1_z9AispUu9s-40" value="Passenger 1" style="text;html=1;strokeColor=none;fillColor=none;align=center;verticalAlign=middle;whiteSpace=wrap;rounded=0;fontSize=80;fontStyle=1" parent="1" vertex="1">
          <mxGeometry x="-189.5" y="3910" width="513" height="33" as="geometry"/>
        </mxCell>
        <mxCell id="JUKCFMBZ1_z9AispUu9s-41" value="Passenger 2" style="text;html=1;strokeColor=none;fillColor=none;align=center;verticalAlign=middle;whiteSpace=wrap;rounded=0;fontSize=80;fontStyle=1" parent="1" vertex="1">
          <mxGeometry x="1337.5" y="3893.5" width="513" height="33" as="geometry"/>
        </mxCell>
        <mxCell id="JUKCFMBZ1_z9AispUu9s-42" value="" style="shape=image;html=1;verticalAlign=top;verticalLabelPosition=bottom;labelBackgroundColor=#ffffff;imageAspect=0;aspect=fixed;image=https://cdn1.iconfinder.com/data/icons/education-filled-outline-8/64/Education-Filled_5-128.png" parent="1" vertex="1">
          <mxGeometry x="970" y="3563" width="330" height="330" as="geometry"/>
        </mxCell>
        <mxCell id="JUKCFMBZ1_z9AispUu9s-45" value="" style="shape=image;html=1;verticalAlign=top;verticalLabelPosition=bottom;labelBackgroundColor=#ffffff;imageAspect=0;aspect=fixed;image=https://cdn1.iconfinder.com/data/icons/travel-253/48/baggage-bag-travel-luggage-128.png" parent="1" vertex="1">
          <mxGeometry x="410" y="3578.5" width="299" height="299" as="geometry"/>
        </mxCell>
        <mxCell id="JUKCFMBZ1_z9AispUu9s-47" value="Infotainment" style="text;html=1;strokeColor=none;fillColor=none;align=center;verticalAlign=middle;whiteSpace=wrap;rounded=0;fontSize=80;fontStyle=1" parent="1" vertex="1">
          <mxGeometry x="701" y="2130" width="220" height="33" as="geometry"/>
        </mxCell>
        <mxCell id="JUKCFMBZ1_z9AispUu9s-50" value="&lt;div align=&quot;left&quot;&gt;&amp;gt; Thermal Imaging &lt;br&gt;&lt;/div&gt;&lt;div align=&quot;left&quot;&gt;&amp;gt; Forgotten Items &lt;br&gt;&lt;/div&gt;" style="text;html=1;strokeColor=#d6b656;fillColor=#fff2cc;align=left;verticalAlign=middle;whiteSpace=wrap;rounded=0;fontSize=80;fontStyle=1;gradientColor=#ffd966;" parent="1" vertex="1">
          <mxGeometry x="-280.5" y="2231" width="840" height="230" as="geometry"/>
        </mxCell>
        <mxCell id="JUKCFMBZ1_z9AispUu9s-51" value="&lt;div&gt;&amp;gt; Connected to Emergency Centers&lt;/div&gt;&lt;div&gt;&amp;gt; Emergency Detection and Alerting Head unit &lt;br&gt;&lt;/div&gt;&lt;div&gt;&amp;gt; Event Notification&lt;/div&gt;" style="text;html=1;strokeColor=#d6b656;fillColor=#fff2cc;align=left;verticalAlign=middle;whiteSpace=wrap;rounded=0;fontSize=80;fontStyle=1;gradientColor=#ffd966;" parent="1" vertex="1">
          <mxGeometry x="-214.5" y="1042" width="1117" height="622" as="geometry"/>
        </mxCell>
        <mxCell id="JUKCFMBZ1_z9AispUu9s-52" value="&lt;div&gt;&amp;gt; Monitoring Health &lt;br&gt;&lt;/div&gt;&lt;div&gt;&amp;gt; Stress Detection&lt;/div&gt;&lt;div&gt;&amp;gt; Attention Detection&lt;br&gt;&lt;/div&gt;" style="text;html=1;strokeColor=#d6b656;fillColor=#fff2cc;align=left;verticalAlign=middle;whiteSpace=wrap;rounded=0;fontSize=80;fontStyle=1;gradientColor=#ffd966;" parent="1" vertex="1">
          <mxGeometry x="2189" y="2336" width="840" height="388" as="geometry"/>
        </mxCell>
        <mxCell id="JUKCFMBZ1_z9AispUu9s-56" value="" style="endArrow=classic;html=1;dashed=1;strokeWidth=12;strokeColor=#0000FF;startArrow=block;startFill=1;endFill=1;fillColor=#d80073;fontStyle=1;fontSize=80;exitX=0;exitY=0.25;exitDx=0;exitDy=0;" parent="1" source="JUKCFMBZ1_z9AispUu9s-52" edge="1">
          <mxGeometry width="50" height="50" relative="1" as="geometry">
            <mxPoint x="2180" y="2170" as="sourcePoint"/>
            <mxPoint x="1828" y="2433" as="targetPoint"/>
          </mxGeometry>
        </mxCell>
        <mxCell id="JUKCFMBZ1_z9AispUu9s-57" value="" style="shape=image;html=1;verticalAlign=top;verticalLabelPosition=bottom;labelBackgroundColor=#ffffff;imageAspect=0;aspect=fixed;image=https://cdn1.iconfinder.com/data/icons/lumin-social-media-icons/512/RSS-128.png;strokeColor=#FF6666;strokeWidth=12;fillColor=#99FFFF;rotation=-90;fontStyle=1;fontSize=80;" parent="1" vertex="1">
          <mxGeometry x="2235.5" y="791.5" width="322" height="322" as="geometry"/>
        </mxCell>
        <mxCell id="JUKCFMBZ1_z9AispUu9s-58" value="Remote Enabled" style="text;html=1;strokeColor=none;fillColor=none;align=center;verticalAlign=middle;whiteSpace=wrap;rounded=0;fontSize=80;fontStyle=1" parent="1" vertex="1">
          <mxGeometry x="1974" y="733.5" width="1055" height="20" as="geometry"/>
        </mxCell>
        <mxCell id="JUKCFMBZ1_z9AispUu9s-59" value="" style="shape=image;html=1;verticalAlign=top;verticalLabelPosition=bottom;labelBackgroundColor=#ffffff;imageAspect=0;aspect=fixed;image=https://cdn1.iconfinder.com/data/icons/lumin-social-media-icons/512/RSS-128.png;strokeColor=#FF6666;strokeWidth=12;fillColor=#99FFFF;rotation=-90;fontStyle=1;fontSize=80;" parent="1" vertex="1">
          <mxGeometry x="-913.5" y="2014" width="322" height="322" as="geometry"/>
        </mxCell>
        <mxCell id="JUKCFMBZ1_z9AispUu9s-60" value="Remote Enabled" style="text;html=1;strokeColor=none;fillColor=none;align=center;verticalAlign=middle;whiteSpace=wrap;rounded=0;fontSize=80;fontStyle=1" parent="1" vertex="1">
          <mxGeometry x="-1280" y="1924" width="1055" height="20" as="geometry"/>
        </mxCell>
        <mxCell id="-WJpmD0RxfwjCmb-TUGB-1" value="&amp;gt; Bio Sensor" style="text;html=1;strokeColor=#d6b656;fillColor=#fff2cc;align=center;verticalAlign=middle;whiteSpace=wrap;rounded=0;fontSize=80;fontStyle=1;gradientColor=#ffd966;" vertex="1" parent="1">
          <mxGeometry x="1151" y="1440" width="539" height="98" as="geometry"/>
        </mxCell>
        <mxCell id="-WJpmD0RxfwjCmb-TUGB-2" value="" style="endArrow=classic;html=1;dashed=1;strokeWidth=12;strokeColor=#3333FF;startArrow=block;startFill=1;endFill=1;fillColor=#d80073;fontStyle=1;fontSize=80;exitX=0.5;exitY=1;exitDx=0;exitDy=0;" edge="1" parent="1" source="JUKCFMBZ1_z9AispUu9s-28">
          <mxGeometry width="50" height="50" relative="1" as="geometry">
            <mxPoint x="1626" y="1581.75" as="sourcePoint"/>
            <mxPoint x="1330" y="1530" as="targetPoint"/>
          </mxGeometry>
        </mxCell>
        <mxCell id="-WJpmD0RxfwjCmb-TUGB-3" value="" style="endArrow=classic;html=1;dashed=1;strokeWidth=12;strokeColor=#3333FF;startArrow=block;startFill=1;endFill=1;fillColor=#d80073;fontStyle=1;fontSize=80;exitX=0.5;exitY=1;exitDx=0;exitDy=0;" edge="1" parent="1">
          <mxGeometry width="50" height="50" relative="1" as="geometry">
            <mxPoint x="629.5" y="1872" as="sourcePoint"/>
            <mxPoint x="489.5" y="1585" as="targetPoint"/>
          </mxGeometry>
        </mxCell>
        <mxCell id="-WJpmD0RxfwjCmb-TUGB-4" value="" style="endArrow=classic;html=1;dashed=1;strokeWidth=12;strokeColor=#3333FF;startArrow=block;startFill=1;endFill=1;fillColor=#d80073;fontStyle=1;fontSize=80;exitX=0.5;exitY=0;exitDx=0;exitDy=0;exitPerimeter=0;entryX=0;entryY=0.5;entryDx=0;entryDy=0;" edge="1" parent="1" source="JUKCFMBZ1_z9AispUu9s-1" target="JUKCFMBZ1_z9AispUu9s-50">
          <mxGeometry width="50" height="50" relative="1" as="geometry">
            <mxPoint x="720" y="2488" as="sourcePoint"/>
            <mxPoint x="580" y="2201" as="targetPoint"/>
          </mxGeometry>
        </mxCell>
      </root>
    </mxGraphModel>
  </diagram>
</mxfile>
